<mxfile host="Electron" modified="2024-06-26T23:54:25.929Z" agent="Mozilla/5.0 (Windows NT 10.0; Win64; x64) AppleWebKit/537.36 (KHTML, like Gecko) draw.io/22.0.3 Chrome/114.0.5735.289 Electron/25.8.4 Safari/537.36" etag="9PtZSDcyKWZGlZF7hHpy" version="22.0.3" type="device">
  <diagram id="C5RBs43oDa-KdzZeNtuy" name="Page-1">
    <mxGraphModel dx="2150" dy="1035" grid="1" gridSize="10" guides="1" tooltips="1" connect="1" arrows="1" fold="1" page="1" pageScale="1" pageWidth="827" pageHeight="1169" math="0" shadow="0">
      <root>
        <mxCell id="WIyWlLk6GJQsqaUBKTNV-0" />
        <mxCell id="WIyWlLk6GJQsqaUBKTNV-1" parent="WIyWlLk6GJQsqaUBKTNV-0" />
        <mxCell id="omqZc-B0T9joH0wMHxrD-2" value="STAGE" style="whiteSpace=wrap;html=1;" parent="WIyWlLk6GJQsqaUBKTNV-1" vertex="1">
          <mxGeometry x="83.5" y="501" width="120" height="60" as="geometry" />
        </mxCell>
        <mxCell id="omqZc-B0T9joH0wMHxrD-6" value="USER" style="whiteSpace=wrap;html=1;" parent="WIyWlLk6GJQsqaUBKTNV-1" vertex="1">
          <mxGeometry x="543.5" y="957" width="120" height="60" as="geometry" />
        </mxCell>
        <mxCell id="omqZc-B0T9joH0wMHxrD-25" value="have&lt;br&gt;" style="rhombus;whiteSpace=wrap;html=1;" parent="WIyWlLk6GJQsqaUBKTNV-1" vertex="1">
          <mxGeometry x="313.5" y="492" width="80" height="80" as="geometry" />
        </mxCell>
        <mxCell id="omqZc-B0T9joH0wMHxrD-26" value="predict" style="rhombus;whiteSpace=wrap;html=1;" parent="WIyWlLk6GJQsqaUBKTNV-1" vertex="1">
          <mxGeometry x="563.5" y="729" width="80" height="80" as="geometry" />
        </mxCell>
        <mxCell id="omqZc-B0T9joH0wMHxrD-27" value="" style="endArrow=none;html=1;rounded=0;exitX=0;exitY=0.5;exitDx=0;exitDy=0;entryX=1;entryY=0.5;entryDx=0;entryDy=0;" parent="WIyWlLk6GJQsqaUBKTNV-1" source="omqZc-B0T9joH0wMHxrD-25" target="omqZc-B0T9joH0wMHxrD-2" edge="1">
          <mxGeometry width="50" height="50" relative="1" as="geometry">
            <mxPoint x="503.5" y="782" as="sourcePoint" />
            <mxPoint x="553.5" y="732" as="targetPoint" />
          </mxGeometry>
        </mxCell>
        <mxCell id="omqZc-B0T9joH0wMHxrD-29" value="" style="endArrow=none;html=1;rounded=0;exitX=1;exitY=0.5;exitDx=0;exitDy=0;entryX=0;entryY=0.5;entryDx=0;entryDy=0;" parent="WIyWlLk6GJQsqaUBKTNV-1" source="omqZc-B0T9joH0wMHxrD-25" target="omqZc-B0T9joH0wMHxrD-35" edge="1">
          <mxGeometry width="50" height="50" relative="1" as="geometry">
            <mxPoint x="183.5" y="782" as="sourcePoint" />
            <mxPoint x="683.5" y="532" as="targetPoint" />
            <Array as="points">
              <mxPoint x="593.5" y="532" />
            </Array>
          </mxGeometry>
        </mxCell>
        <mxCell id="omqZc-B0T9joH0wMHxrD-31" value="receive" style="rhombus;whiteSpace=wrap;html=1;" parent="WIyWlLk6GJQsqaUBKTNV-1" vertex="1">
          <mxGeometry x="313.5" y="947" width="80" height="80" as="geometry" />
        </mxCell>
        <mxCell id="omqZc-B0T9joH0wMHxrD-35" value="FOOTBALL_MATCH" style="whiteSpace=wrap;html=1;" parent="WIyWlLk6GJQsqaUBKTNV-1" vertex="1">
          <mxGeometry x="543.5" y="502" width="120" height="60" as="geometry" />
        </mxCell>
        <mxCell id="omqZc-B0T9joH0wMHxrD-46" value="&lt;u&gt;id_student&lt;/u&gt;" style="text;html=1;align=center;verticalAlign=middle;resizable=0;points=[];autosize=1;strokeColor=none;fillColor=none;" parent="WIyWlLk6GJQsqaUBKTNV-1" vertex="1">
          <mxGeometry x="473.5" y="922" width="80" height="30" as="geometry" />
        </mxCell>
        <mxCell id="omqZc-B0T9joH0wMHxrD-47" value="username" style="text;html=1;align=center;verticalAlign=middle;resizable=0;points=[];autosize=1;strokeColor=none;fillColor=none;" parent="WIyWlLk6GJQsqaUBKTNV-1" vertex="1">
          <mxGeometry x="533.5" y="928.5" width="80" height="30" as="geometry" />
        </mxCell>
        <mxCell id="omqZc-B0T9joH0wMHxrD-48" value="document" style="text;html=1;align=center;verticalAlign=middle;resizable=0;points=[];autosize=1;strokeColor=none;fillColor=none;" parent="WIyWlLk6GJQsqaUBKTNV-1" vertex="1">
          <mxGeometry x="603.5" y="922" width="80" height="30" as="geometry" />
        </mxCell>
        <mxCell id="omqZc-B0T9joH0wMHxrD-49" value="id_campeon" style="text;html=1;align=center;verticalAlign=middle;resizable=0;points=[];autosize=1;strokeColor=none;fillColor=none;" parent="WIyWlLk6GJQsqaUBKTNV-1" vertex="1">
          <mxGeometry x="453.5" y="953.5" width="90" height="30" as="geometry" />
        </mxCell>
        <mxCell id="omqZc-B0T9joH0wMHxrD-50" value="id_subcampeon" style="text;html=1;align=center;verticalAlign=middle;resizable=0;points=[];autosize=1;strokeColor=none;fillColor=none;" parent="WIyWlLk6GJQsqaUBKTNV-1" vertex="1">
          <mxGeometry x="448.5" y="1023.5" width="110" height="30" as="geometry" />
        </mxCell>
        <mxCell id="omqZc-B0T9joH0wMHxrD-54" value="id_away_country" style="text;html=1;align=center;verticalAlign=middle;resizable=0;points=[];autosize=1;strokeColor=none;fillColor=none;" parent="WIyWlLk6GJQsqaUBKTNV-1" vertex="1">
          <mxGeometry x="623.5" y="717" width="110" height="30" as="geometry" />
        </mxCell>
        <mxCell id="omqZc-B0T9joH0wMHxrD-55" value="score_home_country" style="text;html=1;align=center;verticalAlign=middle;resizable=0;points=[];autosize=1;strokeColor=none;fillColor=none;" parent="WIyWlLk6GJQsqaUBKTNV-1" vertex="1">
          <mxGeometry x="638.5" y="777" width="140" height="30" as="geometry" />
        </mxCell>
        <mxCell id="omqZc-B0T9joH0wMHxrD-56" value="id_home_country" style="text;html=1;align=center;verticalAlign=middle;resizable=0;points=[];autosize=1;strokeColor=none;fillColor=none;" parent="WIyWlLk6GJQsqaUBKTNV-1" vertex="1">
          <mxGeometry x="633.5" y="747" width="120" height="30" as="geometry" />
        </mxCell>
        <mxCell id="omqZc-B0T9joH0wMHxrD-61" value="&lt;u&gt;id_match&lt;/u&gt;" style="text;html=1;align=center;verticalAlign=middle;resizable=0;points=[];autosize=1;strokeColor=none;fillColor=none;" parent="WIyWlLk6GJQsqaUBKTNV-1" vertex="1">
          <mxGeometry x="523.5" y="470" width="70" height="30" as="geometry" />
        </mxCell>
        <mxCell id="omqZc-B0T9joH0wMHxrD-62" value="id_home_country" style="text;html=1;align=center;verticalAlign=middle;resizable=0;points=[];autosize=1;strokeColor=none;fillColor=none;" parent="WIyWlLk6GJQsqaUBKTNV-1" vertex="1">
          <mxGeometry x="658.5" y="476" width="120" height="30" as="geometry" />
        </mxCell>
        <mxCell id="omqZc-B0T9joH0wMHxrD-63" value="id_away_country" style="text;html=1;align=center;verticalAlign=middle;resizable=0;points=[];autosize=1;strokeColor=none;fillColor=none;" parent="WIyWlLk6GJQsqaUBKTNV-1" vertex="1">
          <mxGeometry x="503.5" y="572" width="110" height="30" as="geometry" />
        </mxCell>
        <mxCell id="omqZc-B0T9joH0wMHxrD-64" value="date_match" style="text;html=1;align=center;verticalAlign=middle;resizable=0;points=[];autosize=1;strokeColor=none;fillColor=none;" parent="WIyWlLk6GJQsqaUBKTNV-1" vertex="1">
          <mxGeometry x="618.5" y="562" width="90" height="30" as="geometry" />
        </mxCell>
        <mxCell id="omqZc-B0T9joH0wMHxrD-72" value="" style="ellipse;whiteSpace=wrap;html=1;fillColor=#000000;" parent="WIyWlLk6GJQsqaUBKTNV-1" vertex="1">
          <mxGeometry x="303.5" y="981.5" width="10" height="10" as="geometry" />
        </mxCell>
        <mxCell id="omqZc-B0T9joH0wMHxrD-77" value="&lt;u&gt;id_notification&lt;/u&gt;" style="text;html=1;align=center;verticalAlign=middle;resizable=0;points=[];autosize=1;strokeColor=none;fillColor=none;" parent="WIyWlLk6GJQsqaUBKTNV-1" vertex="1">
          <mxGeometry x="23.5" y="925" width="100" height="30" as="geometry" />
        </mxCell>
        <mxCell id="omqZc-B0T9joH0wMHxrD-82" value="n:n" style="text;html=1;align=center;verticalAlign=middle;resizable=0;points=[];autosize=1;strokeColor=none;fillColor=none;rotation=-90;" parent="WIyWlLk6GJQsqaUBKTNV-1" vertex="1">
          <mxGeometry x="573.5" y="846" width="40" height="30" as="geometry" />
        </mxCell>
        <mxCell id="iSfVW5w_0AxGQaPIYA2g-2" value="" style="endArrow=none;html=1;rounded=0;exitX=0.5;exitY=0;exitDx=0;exitDy=0;entryX=0.5;entryY=1;entryDx=0;entryDy=0;" parent="WIyWlLk6GJQsqaUBKTNV-1" source="omqZc-B0T9joH0wMHxrD-26" target="omqZc-B0T9joH0wMHxrD-35" edge="1">
          <mxGeometry width="50" height="50" relative="1" as="geometry">
            <mxPoint x="453.5" y="542" as="sourcePoint" />
            <mxPoint x="793.5" y="532" as="targetPoint" />
            <Array as="points" />
          </mxGeometry>
        </mxCell>
        <mxCell id="iSfVW5w_0AxGQaPIYA2g-11" value="total_points" style="text;html=1;align=center;verticalAlign=middle;resizable=0;points=[];autosize=1;strokeColor=none;fillColor=none;" parent="WIyWlLk6GJQsqaUBKTNV-1" vertex="1">
          <mxGeometry x="618.5" y="1023.5" width="80" height="30" as="geometry" />
        </mxCell>
        <mxCell id="iSfVW5w_0AxGQaPIYA2g-12" value="points" style="text;html=1;align=center;verticalAlign=middle;resizable=0;points=[];autosize=1;strokeColor=none;fillColor=none;" parent="WIyWlLk6GJQsqaUBKTNV-1" vertex="1">
          <mxGeometry x="498.5" y="732" width="60" height="30" as="geometry" />
        </mxCell>
        <mxCell id="iSfVW5w_0AxGQaPIYA2g-13" value="" style="endArrow=none;html=1;rounded=0;exitX=0.5;exitY=0;exitDx=0;exitDy=0;entryX=0.5;entryY=1;entryDx=0;entryDy=0;" parent="WIyWlLk6GJQsqaUBKTNV-1" source="omqZc-B0T9joH0wMHxrD-6" target="omqZc-B0T9joH0wMHxrD-26" edge="1">
          <mxGeometry width="50" height="50" relative="1" as="geometry">
            <mxPoint x="603.5" y="692" as="sourcePoint" />
            <mxPoint x="603.5" y="572" as="targetPoint" />
            <Array as="points" />
          </mxGeometry>
        </mxCell>
        <mxCell id="iSfVW5w_0AxGQaPIYA2g-15" value="1:n" style="text;html=1;align=center;verticalAlign=middle;resizable=0;points=[];autosize=1;strokeColor=none;fillColor=none;" parent="WIyWlLk6GJQsqaUBKTNV-1" vertex="1">
          <mxGeometry x="233.5" y="506" width="40" height="30" as="geometry" />
        </mxCell>
        <mxCell id="iSfVW5w_0AxGQaPIYA2g-19" value="" style="endArrow=none;html=1;rounded=0;exitX=0;exitY=0.5;exitDx=0;exitDy=0;" parent="WIyWlLk6GJQsqaUBKTNV-1" source="omqZc-B0T9joH0wMHxrD-6" edge="1">
          <mxGeometry width="50" height="50" relative="1" as="geometry">
            <mxPoint x="653.5" y="1182" as="sourcePoint" />
            <mxPoint x="393.5" y="987" as="targetPoint" />
            <Array as="points" />
          </mxGeometry>
        </mxCell>
        <mxCell id="iSfVW5w_0AxGQaPIYA2g-22" value="score_home_country" style="text;html=1;align=center;verticalAlign=middle;resizable=0;points=[];autosize=1;strokeColor=none;fillColor=none;" parent="WIyWlLk6GJQsqaUBKTNV-1" vertex="1">
          <mxGeometry x="433.5" y="552" width="140" height="30" as="geometry" />
        </mxCell>
        <mxCell id="iSfVW5w_0AxGQaPIYA2g-24" value="1:n" style="text;html=1;align=center;verticalAlign=middle;resizable=0;points=[];autosize=1;strokeColor=none;fillColor=none;" parent="WIyWlLk6GJQsqaUBKTNV-1" vertex="1">
          <mxGeometry x="398.5" y="953.5" width="40" height="30" as="geometry" />
        </mxCell>
        <mxCell id="iSfVW5w_0AxGQaPIYA2g-25" value="" style="rounded=0;whiteSpace=wrap;html=1;" parent="WIyWlLk6GJQsqaUBKTNV-1" vertex="1">
          <mxGeometry x="73.5" y="951.5" width="130" height="70" as="geometry" />
        </mxCell>
        <mxCell id="iSfVW5w_0AxGQaPIYA2g-26" value="&lt;div&gt;NOTIFICATION&lt;/div&gt;" style="whiteSpace=wrap;html=1;" parent="WIyWlLk6GJQsqaUBKTNV-1" vertex="1">
          <mxGeometry x="78.5" y="956.5" width="120" height="60" as="geometry" />
        </mxCell>
        <mxCell id="iSfVW5w_0AxGQaPIYA2g-28" value="message" style="text;html=1;align=center;verticalAlign=middle;resizable=0;points=[];autosize=1;strokeColor=none;fillColor=none;" parent="WIyWlLk6GJQsqaUBKTNV-1" vertex="1">
          <mxGeometry x="138.5" y="920" width="70" height="30" as="geometry" />
        </mxCell>
        <mxCell id="iSfVW5w_0AxGQaPIYA2g-29" value="" style="endArrow=none;html=1;rounded=0;exitX=1;exitY=0.5;exitDx=0;exitDy=0;" parent="WIyWlLk6GJQsqaUBKTNV-1" source="iSfVW5w_0AxGQaPIYA2g-25" edge="1">
          <mxGeometry width="50" height="50" relative="1" as="geometry">
            <mxPoint x="103.5" y="1031.5" as="sourcePoint" />
            <mxPoint x="303.5" y="987" as="targetPoint" />
            <Array as="points" />
          </mxGeometry>
        </mxCell>
        <mxCell id="m_vJG7iYSvCmG5XPAucM-0" value="have" style="rhombus;whiteSpace=wrap;html=1;" parent="WIyWlLk6GJQsqaUBKTNV-1" vertex="1">
          <mxGeometry x="563.5" y="330" width="80" height="80" as="geometry" />
        </mxCell>
        <mxCell id="m_vJG7iYSvCmG5XPAucM-1" value="" style="endArrow=none;html=1;rounded=0;exitX=0.5;exitY=1;exitDx=0;exitDy=0;entryX=0.5;entryY=0;entryDx=0;entryDy=0;" parent="WIyWlLk6GJQsqaUBKTNV-1" source="m_vJG7iYSvCmG5XPAucM-0" target="omqZc-B0T9joH0wMHxrD-35" edge="1">
          <mxGeometry width="50" height="50" relative="1" as="geometry">
            <mxPoint x="438.5" y="450" as="sourcePoint" />
            <mxPoint x="388.5" y="90" as="targetPoint" />
          </mxGeometry>
        </mxCell>
        <mxCell id="m_vJG7iYSvCmG5XPAucM-2" value="" style="endArrow=none;html=1;rounded=0;exitX=0.5;exitY=0;exitDx=0;exitDy=0;entryX=0.5;entryY=1;entryDx=0;entryDy=0;" parent="WIyWlLk6GJQsqaUBKTNV-1" source="m_vJG7iYSvCmG5XPAucM-0" target="m_vJG7iYSvCmG5XPAucM-3" edge="1">
          <mxGeometry width="50" height="50" relative="1" as="geometry">
            <mxPoint x="118.5" y="450" as="sourcePoint" />
            <mxPoint x="520" y="250" as="targetPoint" />
            <Array as="points" />
          </mxGeometry>
        </mxCell>
        <mxCell id="m_vJG7iYSvCmG5XPAucM-3" value="COUNTRY" style="whiteSpace=wrap;html=1;" parent="WIyWlLk6GJQsqaUBKTNV-1" vertex="1">
          <mxGeometry x="543.5" y="168" width="120" height="60" as="geometry" />
        </mxCell>
        <mxCell id="m_vJG7iYSvCmG5XPAucM-6" value="&lt;u&gt;id_country&lt;/u&gt;" style="text;html=1;align=center;verticalAlign=middle;resizable=0;points=[];autosize=1;strokeColor=none;fillColor=none;" parent="WIyWlLk6GJQsqaUBKTNV-1" vertex="1">
          <mxGeometry x="513.5" y="140" width="80" height="30" as="geometry" />
        </mxCell>
        <mxCell id="m_vJG7iYSvCmG5XPAucM-7" value="name" style="text;html=1;align=center;verticalAlign=middle;resizable=0;points=[];autosize=1;strokeColor=none;fillColor=none;" parent="WIyWlLk6GJQsqaUBKTNV-1" vertex="1">
          <mxGeometry x="583.5" y="138" width="50" height="30" as="geometry" />
        </mxCell>
        <mxCell id="m_vJG7iYSvCmG5XPAucM-8" value="1:2" style="text;html=1;align=center;verticalAlign=middle;resizable=0;points=[];autosize=1;strokeColor=none;fillColor=none;rotation=90;" parent="WIyWlLk6GJQsqaUBKTNV-1" vertex="1">
          <mxGeometry x="608.5" y="420" width="40" height="30" as="geometry" />
        </mxCell>
        <mxCell id="m_vJG7iYSvCmG5XPAucM-12" value="password" style="text;html=1;align=center;verticalAlign=middle;resizable=0;points=[];autosize=1;strokeColor=none;fillColor=none;" parent="WIyWlLk6GJQsqaUBKTNV-1" vertex="1">
          <mxGeometry x="673.5" y="940" width="70" height="30" as="geometry" />
        </mxCell>
        <mxCell id="r8XQzyqeCjpcpuhT-6CS-0" value="name" style="text;html=1;align=center;verticalAlign=middle;resizable=0;points=[];autosize=1;strokeColor=none;fillColor=none;" vertex="1" parent="WIyWlLk6GJQsqaUBKTNV-1">
          <mxGeometry x="568.5" y="1028.5" width="50" height="30" as="geometry" />
        </mxCell>
        <mxCell id="r8XQzyqeCjpcpuhT-6CS-1" value="surname" style="text;html=1;align=center;verticalAlign=middle;resizable=0;points=[];autosize=1;strokeColor=none;fillColor=none;" vertex="1" parent="WIyWlLk6GJQsqaUBKTNV-1">
          <mxGeometry x="658.5" y="987" width="70" height="30" as="geometry" />
        </mxCell>
        <mxCell id="r8XQzyqeCjpcpuhT-6CS-2" value="profile_picture" style="text;html=1;align=center;verticalAlign=middle;resizable=0;points=[];autosize=1;strokeColor=none;fillColor=none;" vertex="1" parent="WIyWlLk6GJQsqaUBKTNV-1">
          <mxGeometry x="438.5" y="993.5" width="100" height="30" as="geometry" />
        </mxCell>
        <mxCell id="r8XQzyqeCjpcpuhT-6CS-3" value="email" style="text;html=1;align=center;verticalAlign=middle;resizable=0;points=[];autosize=1;strokeColor=none;fillColor=none;" vertex="1" parent="WIyWlLk6GJQsqaUBKTNV-1">
          <mxGeometry x="683.5" y="957" width="50" height="30" as="geometry" />
        </mxCell>
        <mxCell id="r8XQzyqeCjpcpuhT-6CS-4" value="&lt;u&gt;id_stage&lt;/u&gt;" style="text;html=1;align=center;verticalAlign=middle;resizable=0;points=[];autosize=1;strokeColor=none;fillColor=none;" vertex="1" parent="WIyWlLk6GJQsqaUBKTNV-1">
          <mxGeometry x="78.5" y="562" width="70" height="30" as="geometry" />
        </mxCell>
        <mxCell id="r8XQzyqeCjpcpuhT-6CS-5" value="name" style="text;html=1;align=center;verticalAlign=middle;resizable=0;points=[];autosize=1;strokeColor=none;fillColor=none;" vertex="1" parent="WIyWlLk6GJQsqaUBKTNV-1">
          <mxGeometry x="148.5" y="562" width="50" height="30" as="geometry" />
        </mxCell>
        <mxCell id="r8XQzyqeCjpcpuhT-6CS-6" value="&lt;u&gt;id_match&lt;/u&gt;" style="text;html=1;align=center;verticalAlign=middle;resizable=0;points=[];autosize=1;strokeColor=none;fillColor=none;" vertex="1" parent="WIyWlLk6GJQsqaUBKTNV-1">
          <mxGeometry x="498.5" y="802" width="70" height="30" as="geometry" />
        </mxCell>
        <mxCell id="r8XQzyqeCjpcpuhT-6CS-7" value="&lt;u&gt;id_user&lt;/u&gt;" style="text;html=1;align=center;verticalAlign=middle;resizable=0;points=[];autosize=1;strokeColor=none;fillColor=none;" vertex="1" parent="WIyWlLk6GJQsqaUBKTNV-1">
          <mxGeometry x="493.5" y="762" width="60" height="30" as="geometry" />
        </mxCell>
        <mxCell id="r8XQzyqeCjpcpuhT-6CS-8" value="score_away_country" style="text;html=1;align=center;verticalAlign=middle;resizable=0;points=[];autosize=1;strokeColor=none;fillColor=none;" vertex="1" parent="WIyWlLk6GJQsqaUBKTNV-1">
          <mxGeometry x="613.5" y="802" width="130" height="30" as="geometry" />
        </mxCell>
        <mxCell id="r8XQzyqeCjpcpuhT-6CS-9" value="id_user" style="text;html=1;align=center;verticalAlign=middle;resizable=0;points=[];autosize=1;strokeColor=none;fillColor=none;" vertex="1" parent="WIyWlLk6GJQsqaUBKTNV-1">
          <mxGeometry x="28.5" y="1026.5" width="60" height="30" as="geometry" />
        </mxCell>
        <mxCell id="r8XQzyqeCjpcpuhT-6CS-10" value="id_stage" style="text;html=1;align=center;verticalAlign=middle;resizable=0;points=[];autosize=1;strokeColor=none;fillColor=none;" vertex="1" parent="WIyWlLk6GJQsqaUBKTNV-1">
          <mxGeometry x="468.5" y="492" width="70" height="30" as="geometry" />
        </mxCell>
        <mxCell id="r8XQzyqeCjpcpuhT-6CS-11" value="score_away_country" style="text;html=1;align=center;verticalAlign=middle;resizable=0;points=[];autosize=1;strokeColor=none;fillColor=none;" vertex="1" parent="WIyWlLk6GJQsqaUBKTNV-1">
          <mxGeometry x="673.5" y="531" width="130" height="30" as="geometry" />
        </mxCell>
        <mxCell id="r8XQzyqeCjpcpuhT-6CS-12" value="id_winner" style="text;html=1;align=center;verticalAlign=middle;resizable=0;points=[];autosize=1;strokeColor=none;fillColor=none;" vertex="1" parent="WIyWlLk6GJQsqaUBKTNV-1">
          <mxGeometry x="473.5" y="532" width="70" height="30" as="geometry" />
        </mxCell>
        <mxCell id="r8XQzyqeCjpcpuhT-6CS-13" value="cup_group" style="text;html=1;align=center;verticalAlign=middle;resizable=0;points=[];autosize=1;strokeColor=none;fillColor=none;" vertex="1" parent="WIyWlLk6GJQsqaUBKTNV-1">
          <mxGeometry x="648.5" y="150" width="80" height="30" as="geometry" />
        </mxCell>
      </root>
    </mxGraphModel>
  </diagram>
</mxfile>
